<svg xmlns="http://www.w3.org/2000/svg" width="200" height="200" viewBox="0 0 200 200"><rect width="80" height="140" x="60" y="20" fill="#2c3e50" stroke="#1a73e8" stroke-width="3" rx="10"/><rect width="66" height="110" x="67" y="32" fill="#1a1a1a" rx="3"/><circle cx="100" cy="152" r="6" fill="#34495e" stroke="#1a73e8" stroke-width="2"/><rect width="66" height="8" x="67" y="32" fill="#1a73e8" opacity=".3"/><g><rect width="18" height="18" x="75" y="48" fill="#1a73e8" rx="4"/><text x="84" y="61" fill="#fff" font-size="12" text-anchor="middle">A</text><rect width="18" height="18" x="101" y="48" fill="#4caf50" rx="4"/><circle cx="110" cy="57" r="3" fill="#fff"/><rect width="18" height="18" x="75" y="73" fill="#ff9800" rx="4"/><path fill="none" stroke="#fff" stroke-linecap="round" stroke-width="2" d="M 78,85 L 84,79 L 90,85"/><rect width="18" height="18" x="101" y="73" fill="#e91e63" rx="4"/><path fill="none" stroke="#fff" stroke-linecap="round" stroke-linejoin="round" stroke-width="2" d="M 107,82 L 110,85 L 113,82"/><rect width="18" height="18" x="75" y="98" fill="#9c27b0" rx="4"/><rect width="10" height="10" x="79" y="102" fill="#fff" opacity=".8"/><rect width="18" height="18" x="101" y="98" fill="#00bcd4" rx="4"/><circle cx="110" cy="107" r="5" fill="none" stroke="#fff" stroke-width="2"/></g><g><rect width="40" height="25" x="145" y="40" fill="#4caf50" opacity=".9" rx="5"/><circle cx="153" cy="52.5" r="3" fill="#fff"/><line x1="160" x2="178" y1="48" y2="48" stroke="#fff" stroke-width="1.5"/><line x1="160" x2="175" y1="53" y2="53" stroke="#fff" stroke-width="1.5"/><rect width="40" height="25" x="15" y="70" fill="#ff9800" opacity=".9" rx="5"/><text x="35" y="86" fill="#fff" font-size="16" text-anchor="middle">📱</text></g><g transform="translate(30, 170)"><polygon fill="#4caf50" points="5 0 5 20 15 10"/><polygon fill="#1a73e8" points="5 0 15 10 5 20" opacity=".7"/><circle cx="45" cy="10" r="7" fill="#555"/><path fill="none" stroke="#555" stroke-width="2" d="M 45,3 Q 43,0 40,2"/><ellipse cx="45" cy="11" fill="#555" rx="6" ry="7"/><rect width="14" height="12" x="65" y="6" fill="#a4c639" rx="2"/><circle cx="69" cy="10" r="1" fill="#fff"/><circle cx="76" cy="10" r="1" fill="#fff"/><line x1="67" x2="67" y1="4" y2="1" stroke="#a4c639" stroke-width="2"/><line x1="78" x2="78" y1="4" y2="1" stroke="#a4c639" stroke-width="2"/><rect width="15" height="12" x="95" y="5" fill="none" stroke="#e91e63" stroke-width="2" rx="2"/><rect width="10" height="10" x="118" y="7" fill="none" stroke="#e91e63" stroke-width="2" rx="1"/><path fill="none" stroke="#4caf50" stroke-linecap="round" stroke-width="2.5" d="M 135,10 L 140,15 L 148,5"/></g></svg>