<svg width="200" height="200" viewBox="0 0 200 200" xmlns="http://www.w3.org/2000/svg">
  <!-- Smartphone principal -->
  <rect x="60" y="20" width="80" height="140" rx="10" fill="#2c3e50" stroke="#1a73e8" stroke-width="3"/>
  
  <!-- Pantalla -->
  <rect x="67" y="32" width="66" height="110" rx="3" fill="#1a1a1a"/>
  
  <!-- Botón home -->
  <circle cx="100" cy="152" r="6" fill="#34495e" stroke="#1a73e8" stroke-width="2"/>
  
  <!-- Barra de estado -->
  <rect x="67" y="32" width="66" height="8" fill="#1a73e8" opacity="0.3"/>
  
  <!-- Iconos de apps en la pantalla -->
  <g>
    <!-- App 1 - Icono cuadrado azul -->
    <rect x="75" y="48" width="18" height="18" rx="4" fill="#1a73e8"/>
    <text x="84" y="61" font-size="12" fill="white" text-anchor="middle">A</text>
    
    <!-- App 2 - Icono cuadrado verde -->
    <rect x="101" y="48" width="18" height="18" rx="4" fill="#4caf50"/>
    <circle cx="110" cy="57" r="3" fill="white"/>
    
    <!-- App 3 - Icono cuadrado naranja -->
    <rect x="75" y="73" width="18" height="18" rx="4" fill="#ff9800"/>
    <path d="M 78,85 L 84,79 L 90,85" stroke="white" stroke-width="2" fill="none" stroke-linecap="round"/>
    
    <!-- App 4 - Icono cuadrado rosa -->
    <rect x="101" y="73" width="18" height="18" rx="4" fill="#e91e63"/>
    <path d="M 107,82 L 110,85 L 113,82" stroke="white" stroke-width="2" fill="none" stroke-linecap="round" stroke-linejoin="round"/>
    
    <!-- App 5 - Icono cuadrado morado -->
    <rect x="75" y="98" width="18" height="18" rx="4" fill="#9c27b0"/>
    <rect x="79" y="102" width="10" height="10" fill="white" opacity="0.8"/>
    
    <!-- App 6 - Icono cuadrado cian -->
    <rect x="101" y="98" width="18" height="18" rx="4" fill="#00bcd4"/>
    <circle cx="110" cy="107" r="5" fill="none" stroke="white" stroke-width="2"/>
  </g>
  
  <!-- Notificaciones flotantes -->
  <g>
    <!-- Notificación 1 -->
    <rect x="145" y="40" width="40" height="25" rx="5" fill="#4caf50" opacity="0.9"/>
    <circle cx="153" cy="52.5" r="3" fill="white"/>
    <line x1="160" y1="48" x2="178" y2="48" stroke="white" stroke-width="1.5"/>
    <line x1="160" y1="53" x2="175" y2="53" stroke="white" stroke-width="1.5"/>
    
    <!-- Notificación 2 -->
    <rect x="15" y="70" width="40" height="25" rx="5" fill="#ff9800" opacity="0.9"/>
    <text x="35" y="86" font-size="16" fill="white" text-anchor="middle">📱</text>
  </g>
  
  <!-- Iconos decorativos inferiores -->
  <g transform="translate(30, 170)">
    <!-- Play Store icon -->
    <polygon points="5,0 5,20 15,10" fill="#4caf50"/>
    <polygon points="5,0 15,10 5,20" fill="#1a73e8" opacity="0.7"/>
    
    <!-- Apple icon -->
    <circle cx="45" cy="10" r="7" fill="#555"/>
    <path d="M 45,3 Q 43,0 40,2" stroke="#555" stroke-width="2" fill="none"/>
    <ellipse cx="45" cy="11" rx="6" ry="7" fill="#555"/>
    
    <!-- Android icon -->
    <rect x="65" y="6" width="14" height="12" rx="2" fill="#a4c639"/>
    <circle cx="69" cy="10" r="1" fill="white"/>
    <circle cx="76" cy="10" r="1" fill="white"/>
    <line x1="67" y1="4" x2="67" y2="1" stroke="#a4c639" stroke-width="2"/>
    <line x1="78" y1="4" x2="78" y2="1" stroke="#a4c639" stroke-width="2"/>
    
    <!-- Responsive icon -->
    <rect x="95" y="5" width="15" height="12" rx="2" fill="none" stroke="#e91e63" stroke-width="2"/>
    <rect x="118" y="7" width="10" height="10" rx="1" fill="none" stroke="#e91e63" stroke-width="2"/>
    
    <!-- Check mark -->
    <path d="M 135,10 L 140,15 L 148,5" stroke="#4caf50" stroke-width="2.5" fill="none" stroke-linecap="round"/>
  </g>
</svg>
