<svg xmlns="http://www.w3.org/2000/svg" width="200" height="200" viewBox="0 0 200 200"><rect width="160" height="110" x="20" y="30" fill="#2c3e50" stroke="#1a73e8" stroke-width="3" rx="8"/><rect width="140" height="90" x="30" y="40" fill="#1a1a1a"/><g fill="#4caf50" font-family="monospace" font-size="10"><text x="40" y="55">&lt;html&gt;</text><text x="50" y="70" fill="#1a73e8">&lt;head&gt;</text><text x="60" y="85" fill="#ff9800">&lt;title&gt;</text><text x="50" y="100" fill="#1a73e8">&lt;/head&gt;</text><text x="50" y="115" fill="#e91e63">&lt;body&gt;</text></g><rect width="2" height="10" x="90" y="107" fill="#0f0"><animate attributeName="opacity" dur="1s" repeatCount="indefinite" values="1;0;1"/></rect><rect width="30" height="5" x="85" y="140" fill="#34495e"/><polygon fill="#2c3e50" points="75 145 125 145 115 160 85 160"/><g transform="translate(20, 170)"><path fill="none" stroke="#1a73e8" stroke-width="2" d="M 5,0 L 0,0 L 0,15 L 5,15"/><path fill="none" stroke="#1a73e8" stroke-width="2" d="M 15,0 L 20,0 L 20,15 L 15,15"/><line x1="25" x2="35" y1="15" y2="0" stroke="#4caf50" stroke-width="2"/><text x="45" y="12" fill="#ff9800" font-family="Arial" font-size="14" font-weight="bold">CSS</text><rect width="12" height="8" x="75" y="2" fill="none" stroke="#e91e63" stroke-width="1.5" rx="1"/><rect width="8" height="12" x="90" y="0" fill="none" stroke="#e91e63" stroke-width="1.5" rx="1"/><circle cx="110" cy="7" r="5" fill="none" stroke="#9c27b0" stroke-width="1.5"/><circle cx="110" cy="7" r="2" fill="#9c27b0"/><path fill="none" stroke="#4caf50" stroke-linecap="round" stroke-width="2" d="M 125,7 L 130,12 L 140,2"/></g></svg>