<svg xmlns="http://www.w3.org/2000/svg" width="250" height="220" viewBox="0 0 250 220"><defs><linearGradient id="bgGrad" x1="0%" x2="100%" y1="0%" y2="100%"><stop offset="0%" style="stop-color:#f0f4ff;stop-opacity:1"/><stop offset="100%" style="stop-color:#e8f1ff;stop-opacity:1"/></linearGradient></defs><rect width="250" height="220" fill="url(#bgGrad)"/><g opacity=".15"><rect width="60" height="35" x="10" y="140" fill="#34495e" rx="3"/><rect width="50" height="20" x="15" y="145" fill="#1a1a1a"/><rect width="20" height="3" x="30" y="165" fill="#34495e"/><rect width="60" height="35" x="180" y="145" fill="#34495e" rx="3"/><rect width="50" height="20" x="185" y="150" fill="#1a1a1a"/><rect width="20" height="3" x="200" y="170" fill="#34495e"/></g><g><circle cx="55" cy="65" r="20" fill="#d4a574"/><ellipse cx="55" cy="50" fill="#8b6f47" rx="22" ry="18"/><circle cx="50" cy="63" r="3" fill="#000"/><circle cx="60" cy="63" r="3" fill="#000"/><path fill="none" stroke="#000" stroke-linecap="round" stroke-width="2.5" d="M 48,72 Q 55,78 62,72"/><ellipse cx="55" cy="110" fill="#1a73e8" rx="22" ry="25"/><rect width="60" height="8" x="25" y="95" fill="#d4a574" rx="4" transform="rotate(-25 55 99)"/><circle cx="75" cy="85" r="6" fill="#d4a574"/><rect width="28" height="18" x="82" y="78" fill="#34495e" rx="2"/><rect width="22" height="12" x="85" y="81" fill="#1a1a1a"/></g><g><circle cx="125" cy="55" r="24" fill="#daa89b"/><ellipse cx="125" cy="38" fill="#c67c5a" rx="26" ry="22"/><circle cx="117" cy="53" r="3.5" fill="#000"/><circle cx="133" cy="53" r="3.5" fill="#000"/><path fill="none" stroke="#000" stroke-linecap="round" stroke-width="2" d="M 114,47 Q 117,45 120,47"/><path fill="none" stroke="#000" stroke-linecap="round" stroke-width="2" d="M 130,47 Q 133,45 136,47"/><path fill="none" stroke="#000" stroke-linecap="round" stroke-width="3" d="M 115,65 Q 125,75 135,65"/><ellipse cx="125" cy="105" fill="#4caf50" rx="26" ry="30"/><rect width="74" height="10" x="88" y="88" fill="#daa89b" rx="5" transform="rotate(-20 125 93)"/><circle cx="98" cy="75" r="7" fill="#daa89b"/><circle cx="152" cy="75" r="7" fill="#daa89b"/><rect width="34" height="50" x="75" y="68" fill="#ff9800" opacity=".9" rx="4"/><rect width="24" height="38" x="80" y="73" fill="#fff8e1"/></g><g><circle cx="195" cy="70" r="19" fill="#e8b8a3"/><ellipse cx="195" cy="53" fill="#d4724d" rx="21" ry="16"/><circle cx="188" cy="68" r="3" fill="#000"/><circle cx="202" cy="68" r="3" fill="#000"/><path fill="none" stroke="#000" stroke-linecap="round" stroke-width="2.5" d="M 186,78 Q 195,83 204,78"/><ellipse cx="195" cy="115" fill="#9c27b0" rx="20" ry="24"/><rect width="54" height="8" x="168" y="102" fill="#e8b8a3" rx="4" transform="rotate(20 195 106)"/><circle cx="172" cy="92" r="5.5" fill="#e8b8a3"/><rect width="16" height="28" x="155" y="82" fill="#34495e" rx="2"/><rect width="12" height="20" x="157" y="85" fill="#1a1a1a"/></g><g><g><path fill="none" stroke="#1a73e8" stroke-linecap="round" stroke-width="2" d="M 3,0 L 0,5 L 3,10" transform="translate(15, 35)"/><path fill="none" stroke="#1a73e8" stroke-linecap="round" stroke-width="2" d="M 7,0 L 10,5 L 7,10" transform="translate(15, 35)"/></g><g><text x="0" y="10" fill="#ff9800" font-family="Arial" font-size="14" font-weight="bold" transform="translate(225, 50)">CSS</text></g><g transform="translate(20, 180)"><path fill="none" stroke="#4caf50" stroke-linecap="round" stroke-width="2" d="M 5,10 Q 8,7 12,10"/><path fill="none" stroke="#4caf50" stroke-linecap="round" stroke-width="2" d="M 3,12 Q 8,7 14,12"/><circle cx="8" cy="15" r="1.5" fill="#4caf50"/></g><g><path fill="none" stroke="#4caf50" stroke-linecap="round" stroke-linejoin="round" stroke-width="2.5" d="M 2,8 L 6,12 L 14,4" transform="translate(215, 180)"/></g></g><g stroke="#1a73e8" stroke-dasharray="2 2" stroke-width="1.5" opacity=".4"><line x1="75" x2="102" y1="115" y2="115"/><line x1="148" x2="175" y1="115" y2="115"/></g><text x="125" y="215" fill="#1a73e8" font-family="Arial" font-size="16" font-weight="bold" text-anchor="middle">Equipo de Tecnología</text></svg>