<svg width="200" height="200" viewBox="0 0 200 200" xmlns="http://www.w3.org/2000/svg">
  <!-- Edificio/Empresa de fondo -->
  <rect x="50" y="60" width="100" height="80" rx="5" fill="#2c3e50" opacity="0.2"/>
  <rect x="55" y="65" width="90" height="70" rx="3" fill="#34495e" opacity="0.3"/>
  
  <!-- Ventanas del edificio -->
  <g fill="#1a73e8" opacity="0.4">
    <rect x="62" y="72" width="10" height="10" rx="1"/>
    <rect x="77" y="72" width="10" height="10" rx="1"/>
    <rect x="92" y="72" width="10" height="10" rx="1"/>
    <rect x="107" y="72" width="10" height="10" rx="1"/>
    <rect x="122" y="72" width="10" height="10" rx="1"/>
    
    <rect x="62" y="87" width="10" height="10" rx="1"/>
    <rect x="77" y="87" width="10" height="10" rx="1"/>
    <rect x="92" y="87" width="10" height="10" rx="1"/>
    <rect x="107" y="87" width="10" height="10" rx="1"/>
    <rect x="122" y="87" width="10" height="10" rx="1"/>
  </g>
  
  <!-- Grupo de personas - Equipo -->
  <g>
    <!-- Persona 1 - Izquierda -->
    <circle cx="60" cy="120" r="15" fill="#1a73e8"/>
    <ellipse cx="60" cy="145" rx="20" ry="15" fill="#1a73e8"/>
    <circle cx="60" cy="120" r="10" fill="#2c3e50"/>
    <circle cx="57" cy="118" r="2" fill="white"/>
    <circle cx="63" cy="118" r="2" fill="white"/>
    <path d="M 57,124 Q 60,126 63,124" stroke="white" stroke-width="1.5" fill="none"/>
    
    <!-- Persona 2 - Centro (más grande/destacada) -->
    <circle cx="100" cy="115" r="18" fill="#4caf50"/>
    <ellipse cx="100" cy="145" rx="24" ry="18" fill="#4caf50"/>
    <circle cx="100" cy="115" r="12" fill="#2c3e50"/>
    <circle cx="96" cy="113" r="2" fill="white"/>
    <circle cx="104" cy="113" r="2" fill="white"/>
    <path d="M 96,120 Q 100,123 104,120" stroke="white" stroke-width="1.5" fill="none"/>
    
    <!-- Persona 3 - Derecha -->
    <circle cx="140" cy="120" r="15" fill="#ff9800"/>
    <ellipse cx="140" cy="145" rx="20" ry="15" fill="#ff9800"/>
    <circle cx="140" cy="120" r="10" fill="#2c3e50"/>
    <circle cx="137" cy="118" r="2" fill="white"/>
    <circle cx="143" cy="118" r="2" fill="white"/>
    <path d="M 137,124 Q 140,126 143,124" stroke="white" stroke-width="1.5" fill="none"/>
  </g>
  
  <!-- Iconos de colaboración -->
  <g>
    <!-- Estrella de calidad -->
    <g transform="translate(25, 30)">
      <polygon points="10,0 12,6 18,7 14,11 15,17 10,14 5,17 6,11 2,7 8,6" fill="#ffc107"/>
    </g>
    
    <!-- Bombilla de ideas -->
    <g transform="translate(155, 25)">
      <ellipse cx="10" cy="8" rx="6" ry="8" fill="#ffc107"/>
      <rect x="8" y="15" width="4" height="3" fill="#ffc107"/>
      <rect x="7" y="18" width="6" height="2" rx="1" fill="#ff9800"/>
      <line x1="4" y1="5" x2="1" y2="2" stroke="#ffc107" stroke-width="1.5"/>
      <line x1="16" y1="5" x2="19" y2="2" stroke="#ffc107" stroke-width="1.5"/>
    </g>
    
    <!-- Engranajes de trabajo -->
    <g transform="translate(15, 100)">
      <circle cx="10" cy="10" r="6" fill="none" stroke="#9c27b0" stroke-width="2"/>
      <circle cx="10" cy="10" r="3" fill="#9c27b0"/>
      <line x1="10" y1="4" x2="10" y2="2" stroke="#9c27b0" stroke-width="2"/>
      <line x1="10" y1="18" x2="10" y2="16" stroke="#9c27b0" stroke-width="2"/>
      <line x1="4" y1="10" x2="2" y2="10" stroke="#9c27b0" stroke-width="2"/>
      <line x1="18" y1="10" x2="16" y2="10" stroke="#9c27b0" stroke-width="2"/>
    </g>
    
    <!-- Objetivo/Target -->
    <g transform="translate(165, 100)">
      <circle cx="10" cy="10" r="8" fill="none" stroke="#e91e63" stroke-width="2"/>
      <circle cx="10" cy="10" r="5" fill="none" stroke="#e91e63" stroke-width="2"/>
      <circle cx="10" cy="10" r="2" fill="#e91e63"/>
    </g>
  </g>
  
  <!-- Líneas de conexión entre personas (trabajo en equipo) -->
  <g stroke="#1a73e8" stroke-width="2" stroke-dasharray="3,3" opacity="0.5">
    <line x1="75" y1="130" x2="85" y2="130"/>
    <line x1="115" y1="130" x2="125" y2="130"/>
  </g>
  
  <!-- Badge de innovación -->
  <g transform="translate(85, 20)">
    <circle cx="15" cy="15" r="12" fill="#4caf50"/>
    <path d="M 10,15 L 13,18 L 20,11" stroke="white" stroke-width="2.5" fill="none" stroke-linecap="round" stroke-linejoin="round"/>
  </g>
  
  <!-- Texto decorativo -->
  <text x="100" y="180" font-family="Arial" font-size="14" font-weight="bold" fill="#1a73e8" text-anchor="middle">Team Work</text>
</svg>
