<svg width="250" height="220" viewBox="0 0 250 220" xmlns="http://www.w3.org/2000/svg">
  <!-- Fondo degradado -->
  <defs>
    <linearGradient id="bgGrad" x1="0%" y1="0%" x2="100%" y2="100%">
      <stop offset="0%" style="stop-color:#f0f4ff;stop-opacity:1" />
      <stop offset="100%" style="stop-color:#e8f1ff;stop-opacity:1" />
    </linearGradient>
  </defs>
  <rect width="250" height="220" fill="url(#bgGrad)"/>
  
  <!-- Laptops de fondo -->
  <g opacity="0.15">
    <rect x="10" y="140" width="60" height="35" rx="3" fill="#34495e"/>
    <rect x="15" y="145" width="50" height="20" fill="#1a1a1a"/>
    <rect x="30" y="165" width="20" height="3" fill="#34495e"/>
    
    <rect x="180" y="145" width="60" height="35" rx="3" fill="#34495e"/>
    <rect x="185" y="150" width="50" height="20" fill="#1a1a1a"/>
    <rect x="200" y="170" width="20" height="3" fill="#34495e"/>
  </g>
  
  <!-- Persona 1 - Izquierda -->
  <g>
    <!-- Cabeza -->
    <circle cx="55" cy="65" r="20" fill="#d4a574"/>
    
    <!-- Pelo -->
    <ellipse cx="55" cy="50" rx="22" ry="18" fill="#8b6f47"/>
    
    <!-- Cara sonriente -->
    <circle cx="50" cy="63" r="3" fill="#000"/>
    <circle cx="60" cy="63" r="3" fill="#000"/>
    
    <!-- Sonrisa -->
    <path d="M 48,72 Q 55,78 62,72" stroke="#000" stroke-width="2.5" fill="none" stroke-linecap="round"/>
    
    <!-- Cuerpo -->
    <ellipse cx="55" cy="110" rx="22" ry="25" fill="#1a73e8"/>
    
    <!-- Brazos -->
    <rect x="25" y="95" width="60" height="8" rx="4" fill="#d4a574" transform="rotate(-25 55 99)"/>
    
    <!-- Mano derecha con laptop -->
    <circle cx="75" cy="85" r="6" fill="#d4a574"/>
    <rect x="82" y="78" width="28" height="18" rx="2" fill="#34495e"/>
    <rect x="85" y="81" width="22" height="12" fill="#1a1a1a"/>
  </g>
  
  <!-- Persona 2 - Centro (más grande) -->
  <g>
    <!-- Cabeza -->
    <circle cx="125" cy="55" r="24" fill="#daa89b"/>
    
    <!-- Pelo -->
    <ellipse cx="125" cy="38" rx="26" ry="22" fill="#c67c5a"/>
    
    <!-- Cara sonriente -->
    <circle cx="117" cy="53" r="3.5" fill="#000"/>
    <circle cx="133" cy="53" r="3.5" fill="#000"/>
    
    <!-- Cejas -->
    <path d="M 114,47 Q 117,45 120,47" stroke="#000" stroke-width="2" fill="none" stroke-linecap="round"/>
    <path d="M 130,47 Q 133,45 136,47" stroke="#000" stroke-width="2" fill="none" stroke-linecap="round"/>
    
    <!-- Sonrisa grande -->
    <path d="M 115,65 Q 125,75 135,65" stroke="#000" stroke-width="3" fill="none" stroke-linecap="round"/>
    
    <!-- Cuerpo -->
    <ellipse cx="125" cy="105" rx="26" ry="30" fill="#4caf50"/>
    
    <!-- Brazos -->
    <rect x="88" y="88" width="74" height="10" rx="5" fill="#daa89b" transform="rotate(-20 125 93)"/>
    
    <!-- Manos con tablet -->
    <circle cx="98" cy="75" r="7" fill="#daa89b"/>
    <circle cx="152" cy="75" r="7" fill="#daa89b"/>
    <rect x="75" y="68" width="34" height="50" rx="4" fill="#ff9800" opacity="0.9"/>
    <rect x="80" y="73" width="24" height="38" fill="#fff8e1"/>
  </g>
  
  <!-- Persona 3 - Derecha -->
  <g>
    <!-- Cabeza -->
    <circle cx="195" cy="70" r="19" fill="#e8b8a3"/>
    
    <!-- Pelo -->
    <ellipse cx="195" cy="53" rx="21" ry="16" fill="#d4724d"/>
    
    <!-- Cara sonriente -->
    <circle cx="188" cy="68" r="3" fill="#000"/>
    <circle cx="202" cy="68" r="3" fill="#000"/>
    
    <!-- Sonrisa -->
    <path d="M 186,78 Q 195,83 204,78" stroke="#000" stroke-width="2.5" fill="none" stroke-linecap="round"/>
    
    <!-- Cuerpo -->
    <ellipse cx="195" cy="115" rx="20" ry="24" fill="#9c27b0"/>
    
    <!-- Brazos -->
    <rect x="168" y="102" width="54" height="8" rx="4" fill="#e8b8a3" transform="rotate(20 195 106)"/>
    
    <!-- Mano izquierda con teléfono -->
    <circle cx="172" cy="92" r="5.5" fill="#e8b8a3"/>
    <rect x="155" y="82" width="16" height="28" rx="2" fill="#34495e"/>
    <rect x="157" y="85" width="12" height="20" fill="#1a1a1a"/>
  </g>
  
  <!-- Iconos de tecnología flotantes -->
  <g>
    <!-- Código/Brackets -->
    <g transform="translate(15, 35)">
      <path d="M 3,0 L 0,5 L 3,10" stroke="#1a73e8" stroke-width="2" fill="none" stroke-linecap="round"/>
      <path d="M 7,0 L 10,5 L 7,10" stroke="#1a73e8" stroke-width="2" fill="none" stroke-linecap="round"/>
    </g>
    
    <!-- CSS -->
    <g transform="translate(225, 50)">
      <text x="0" y="10" font-family="Arial" font-size="14" font-weight="bold" fill="#ff9800">CSS</text>
    </g>
    
    <!-- Wifi -->
    <g transform="translate(20, 180)">
      <path d="M 5,10 Q 8,7 12,10" stroke="#4caf50" stroke-width="2" fill="none" stroke-linecap="round"/>
      <path d="M 3,12 Q 8,7 14,12" stroke="#4caf50" stroke-width="2" fill="none" stroke-linecap="round"/>
      <circle cx="8" cy="15" r="1.5" fill="#4caf50"/>
    </g>
    
    <!-- Check/Éxito -->
    <g transform="translate(215, 180)">
      <path d="M 2,8 L 6,12 L 14,4" stroke="#4caf50" stroke-width="2.5" fill="none" stroke-linecap="round" stroke-linejoin="round"/>
    </g>
  </g>
  
  <!-- Líneas de conexión -->
  <g stroke="#1a73e8" stroke-width="1.5" stroke-dasharray="2,2" opacity="0.4">
    <line x1="75" y1="115" x2="102" y2="115"/>
    <line x1="148" y1="115" x2="175" y2="115"/>
  </g>
  
  <!-- Texto -->
  <text x="125" y="215" font-family="Arial" font-size="16" font-weight="bold" fill="#1a73e8" text-anchor="middle">Equipo de Tecnología</text>
</svg>
