<svg xmlns="http://www.w3.org/2000/svg" width="300" height="300" viewBox="0 0 300 300"><defs><linearGradient id="bulbGrad" x1="0%" x2="100%" y1="0%" y2="100%"><stop offset="0%" style="stop-color:#fbbf24"/><stop offset="100%" style="stop-color:#f59e0b"/></linearGradient></defs><circle cx="150" cy="120" r="50" fill="url(#bulbGrad)" opacity=".9"/><circle cx="130" cy="100" r="20" fill="#fff" opacity=".3"/><path fill="none" stroke="#f59e0b" stroke-linecap="round" stroke-width="4" d="M 150 170 Q 145 190 150 210 Q 155 190 150 230"/><rect width="30" height="15" x="135" y="225" fill="#f59e0b" rx="3"/><rect width="40" height="3" x="130" y="242" fill="#d97706" rx="1.5"/><rect width="44" height="3" x="128" y="250" fill="#d97706" rx="1.5"/><g stroke="#fff" stroke-linecap="round" stroke-width="3" opacity=".7"><line x1="150" x2="150" y1="30" y2="10"/><line x1="220" x2="235" y1="50" y2="35"/><line x1="245" x2="265" y1="120" y2="120"/><line x1="220" x2="235" y1="190" y2="205"/><line x1="80" x2="65" y1="50" y2="35"/><line x1="55" x2="35" y1="120" y2="120"/><line x1="80" x2="65" y1="190" y2="205"/></g><circle cx="150" cy="120" r="60" fill="none" stroke="#fff" stroke-dasharray="5 5" stroke-width="1" opacity=".2"/><circle cx="150" cy="120" r="75" fill="none" stroke="#fff" stroke-dasharray="8 4" stroke-width="1" opacity=".1"/></svg>