<svg xmlns="http://www.w3.org/2000/svg" width="200" height="200" viewBox="0 0 200 200"><defs><linearGradient id="ecommerceGrad" x1="0%" x2="100%" y1="0%" y2="100%"><stop offset="0%" style="stop-color:#2563eb;stop-opacity:1"/><stop offset="100%" style="stop-color:#1e40af;stop-opacity:1"/></linearGradient></defs><path fill="none" stroke="url(#ecommerceGrad)" stroke-linejoin="round" stroke-width="3" d="M 50 80 L 60 50 L 140 50 L 150 80 Z"/><circle cx="75" cy="95" r="8" fill="none" stroke="url(#ecommerceGrad)" stroke-width="3"/><circle cx="125" cy="95" r="8" fill="none" stroke="url(#ecommerceGrad)" stroke-width="3"/><line x1="75" x2="125" y1="95" y2="95" stroke="url(#ecommerceGrad)" stroke-width="2"/><path fill="none" stroke="url(#ecommerceGrad)" stroke-linecap="round" stroke-width="3" d="M 55 50 Q 40 45 45 20"/><rect width="35" height="25" x="70" y="58" fill="#10b981" stroke="url(#ecommerceGrad)" stroke-width="2" opacity=".4"/><circle cx="145" cy="65" r="12" fill="#10b981"/><text x="145" y="70" fill="#fff" font-size="10" font-weight="bold" text-anchor="middle">$</text><g transform="translate(100, 135)"><polygon fill="#fbbf24" points="0 -8 2 -2 8 -1 3 3 5 9 0 5 -5 9 -3 3 -8 -1 -2 -2"/></g></svg>