<svg xmlns="http://www.w3.org/2000/svg" width="200" height="200" viewBox="0 0 200 200"><defs><linearGradient id="designGrad" x1="0%" x2="100%" y1="0%" y2="100%"><stop offset="0%" style="stop-color:#2563eb;stop-opacity:1"/><stop offset="100%" style="stop-color:#1e40af;stop-opacity:1"/></linearGradient></defs><rect width="120" height="80" x="40" y="30" fill="none" stroke="url(#designGrad)" stroke-width="4" rx="8"/><rect width="100" height="60" x="50" y="40" fill="#e0f2fe"/><circle cx="65" cy="50" r="4" fill="#2563eb"/><circle cx="75" cy="50" r="4" fill="#2563eb"/><circle cx="85" cy="50" r="4" fill="#2563eb"/><rect width="30" height="3" x="55" y="60" fill="#2563eb" rx="1.5"/><rect width="25" height="3" x="90" y="60" fill="#2563eb" rx="1.5"/><rect width="60" height="3" x="55" y="68" fill="#1e40af" opacity=".7" rx="1.5"/><rect width="60" height="3" x="55" y="75" fill="#1e40af" opacity=".7" rx="1.5"/><rect width="40" height="8" x="80" y="110" fill="url(#designGrad)" rx="2"/><path fill="url(#designGrad)" d="M 85 118 L 75 130 L 125 130 L 115 118"/><circle cx="130" cy="145" r="8" fill="#ff6b6b"/><circle cx="145" cy="140" r="8" fill="#4ecdc4"/><circle cx="155" cy="155" r="8" fill="#ffd93d"/></svg>