<svg xmlns="http://www.w3.org/2000/svg" viewBox="0 0 200 200" width="200" height="200">
  <defs>
    <linearGradient id="designGrad" x1="0%" y1="0%" x2="100%" y2="100%">
      <stop offset="0%" style="stop-color:#2563eb;stop-opacity:1" />
      <stop offset="100%" style="stop-color:#1e40af;stop-opacity:1" />
    </linearGradient>
  </defs>
  
  <!-- Monitor/Pantalla -->
  <rect x="40" y="30" width="120" height="80" rx="8" fill="none" stroke="url(#designGrad)" stroke-width="4"/>
  
  <!-- Pantalla interna con elementos de diseño -->
  <rect x="50" y="40" width="100" height="60" fill="#e0f2fe"/>
  
  <!-- Elementos de UI -->
  <circle cx="65" cy="50" r="4" fill="#2563eb"/>
  <circle cx="75" cy="50" r="4" fill="#2563eb"/>
  <circle cx="85" cy="50" r="4" fill="#2563eb"/>
  
  <rect x="55" y="60" width="30" height="3" fill="#2563eb" rx="1.5"/>
  <rect x="90" y="60" width="25" height="3" fill="#2563eb" rx="1.5"/>
  <rect x="55" y="68" width="60" height="3" fill="#1e40af" rx="1.5" opacity="0.7"/>
  <rect x="55" y="75" width="60" height="3" fill="#1e40af" rx="1.5" opacity="0.7"/>
  
  <!-- Base del monitor -->
  <rect x="80" y="110" width="40" height="8" rx="2" fill="url(#designGrad)"/>
  <path d="M 85 118 L 75 130 L 125 130 L 115 118" fill="url(#designGrad)"/>
  
  <!-- Paleta de colores -->
  <circle cx="130" cy="145" r="8" fill="#ff6b6b"/>
  <circle cx="145" cy="140" r="8" fill="#4ecdc4"/>
  <circle cx="155" cy="155" r="8" fill="#ffd93d"/>
</svg>